<svg xmlns="http://www.w3.org/2000/svg" width="465.1" height="465.1"><defs><clipPath id="a"><path d="M41.6 191.3h348.8v303.3H41.6z"/></clipPath></defs><g fill="#007b3d" clip-path="url(#a)" transform="matrix(1.33333 0 0 -1.33333 -55.5 689.8)"><path d="M322 249.4a126 126 0 0 1 0 138l.2.2-4.4 6-3.7 5h-.2c-24 29.5-60.4 47-98.6 47-38.2 0-74.5-17.5-98.6-47h-.2l-3.7-5-4.4-6 .3-.1a126 126 0 0 1 0-138.1l-.3-.2 4.4-5.9 3.7-5.1h.2c24-29.4 60.4-46.9 98.6-46.9 38.2 0 74.6 17.5 98.6 47l.2-.1 3.7 5v.1l4.4 6zm-74.4-39.6a129 129 0 0 1 21.6 47 215 215 0 0 0 20.9-6.3l.4-.2a138 138 0 0 0 8.8-3.7l1.4-.7 1.3-.7a114.9 114.9 0 0 0-54.4-35.4m15.3 101.8a240 240 0 0 0-4.1-38.8 257.7 257.7 0 0 1-10.2 1.5l-6.1.7-1 .1-5.5.5-1.9.1-4.8.3-3.3.1a274.3 274.3 0 0 1-17.8.2l-3.5-.1-3.4-.2c-1.6 0-3.1-.2-4.7-.3l-2-.1-5.4-.5H188l-6-.8h-.4l-9.9-1.5a240 240 0 0 0-4 38.8zm-95.1 13.6c.3 13.7 1.7 26.8 4 38.8 3.3-.6 6.6-1 10-1.5h.3l6-.7 1-.1 5.5-.5h2l4.7-.4 3.4-.1 3.5-.2a212 212 0 0 1 14.2 0l3.6.2 3.3.1 4.8.3 1.9.1a231.3 231.3 0 0 1 22.8 2.8c2.3-12 3.7-25.1 4-38.8zm7-65.8c4.4.8 8.8 1.4 13.3 1.9h.2l6 .6h.8l5.6.4h1.2c1.8.2 3.5.3 5.3.3h1.5a317.9 317.9 0 0 0 13.3 0h1.4l5.3-.2h1.3l5.5-.5h.8l6-.6h.2c4.5-.5 9-1.1 13.3-1.9C247.3 227 232 205 215.3 205s-32 22-40.5 54.4m-46.1-14.2a130.4 130.4 0 0 1 2.7 1.4l3.3 1.5 1.2.5 4.2 1.7.5.2c6.4 2.4 13.4 4.5 20.8 6.3a130 130 0 0 1 21.6-47c-21 6.3-40 18.6-54.3 35.4M102 311.6h52c.3-14.7 1.8-28.6 4.3-41.5a171.2 171.2 0 0 1-28.2-9l-.4-.2-2.2-1-3-1.4-1.6-.8-2.7-1.4a112.8 112.8 0 0 0-18.2 55.3m25.5 65.4l2.2-1 .3-.1c8.5-3.7 18-6.8 28.3-9.2-2.5-12.9-4-26.8-4.3-41.5h-52c1.2 19.8 7.4 38.8 18.2 55.3l2.7-1.3 1.6-.9 3-1.3m55.4 50c-9-11.4-16.5-27.5-21.6-47a168 168 0 0 0-20.7 6.3l-.8.3-3.9 1.6-1.5.6-3 1.4-1.7.8-1.2.6A114.8 114.8 0 0 0 183 427m72.8-49.6a227.7 227.7 0 0 0-19.5-2.4l-.8-.1-5.5-.4h-1.3l-5.3-.3H222a352.4 352.4 0 0 0-14.8 0l-5.3.2-1.2.1-5.5.4h-.9a204.6 204.6 0 0 0-19.5 2.5c8.5 32.4 23.7 54.5 40.5 54.5 16.9 0 32-22.1 40.5-54.5m46.2 14.2l-1.2-.6-1.7-.8-3-1.4-1.5-.6-3.8-1.6c-.3 0-.6-.2-.8-.3-6.5-2.4-13.4-4.5-20.8-6.2a129 129 0 0 1-21.6 47c21-6.4 40-18.6 54.4-35.5m26.5-66.4h-52c-.3 14.7-1.8 28.6-4.3 41.5a167 167 0 0 1 31 10.4l2.8 1.2 1.7 1c.9.3 1.8.8 2.6 1.2 10.8-16.5 17-35.5 18.2-55.3m-18.2-68.9l-2.6 1.3-1.7.9-2.8 1.3a161 161 0 0 1-31 10.3 255 255 0 0 1 4.4 41.5h52a112.6 112.6 0 0 0-18.3-55.3"/><path d="M112.5 431v-43.3L216 364.1l103.6 23.6V431l12.4 3.2 22 5.7v-21a2.7 2.7 0 0 1-1.5-2.5v-2.8c0-1 .5-2 1.3-2.4l-5.3-24.8H364l-5.3 24.8c.8.5 1.3 1.4 1.3 2.4v2.8c0 1.1-.6 2.1-1.5 2.5v22.2l32 8.3L216 494.6 41.6 449.4l58.4-15.1z"/></g></svg>