<?xml version="1.0" encoding="UTF-8" standalone="no"?>
<svg
   xmlns:dc="http://purl.org/dc/elements/1.1/"
   xmlns:cc="http://creativecommons.org/ns#"
   xmlns:rdf="http://www.w3.org/1999/02/22-rdf-syntax-ns#"
   xmlns:svg="http://www.w3.org/2000/svg"
   xmlns="http://www.w3.org/2000/svg"
   viewBox="0 0 465.05399 465.05398"
   height="465.05399"
   width="465.05399"
   xml:space="preserve"
   id="svg2"
   version="1.1"><metadata
     id="metadata8"><rdf:RDF><cc:Work
         rdf:about=""><dc:format>image/svg+xml</dc:format><dc:type
           rdf:resource="http://purl.org/dc/dcmitype/StillImage" /><dc:title></dc:title></cc:Work></rdf:RDF></metadata><defs
     id="defs6"><clipPath
       id="clipPath18"
       clipPathUnits="userSpaceOnUse"><path
         id="path16"
         d="M 41.628,191.297 H 390.42 V 494.604 H 41.628 Z" /></clipPath></defs><g
     transform="matrix(1.3333333,0,0,-1.3333333,-55.505999,720.11664)"
     id="g10"><g
       transform="translate(-7.509926e-7,22.741745)"
       id="g12"><g
         clip-path="url(#clipPath18)"
         id="g14"><g
           transform="translate(321.9265,249.365)"
           id="g20"><path
             id="path22"
             style="fill:#007b3d;fill-opacity:1;fill-rule:nonzero;stroke:none"
             d="m 0,0 c 13.385,20.594 20.487,44.274 20.487,69.062 0,24.75 -7.102,48.449 -20.487,69.048 l 0.252,0.154 -4.338,5.895 c -0.009,0.024 -0.023,0.042 -0.038,0.056 l -3.721,5.087 -0.173,-0.108 c -24.021,29.496 -60.403,46.977 -98.6,46.977 -38.168,0 -74.541,-17.481 -98.594,-46.977 l -0.178,0.108 -3.722,-5.087 c -0.009,-0.014 -0.009,-0.028 -0.023,-0.032 l -4.348,-5.919 0.239,-0.154 c -13.371,-20.59 -20.473,-44.284 -20.473,-69.048 0,-24.788 7.102,-48.477 20.473,-69.071 l -0.239,-0.141 4.325,-5.89 c 0.023,-0.014 0.037,-0.066 0.046,-0.075 l 3.722,-5.063 0.164,0.084 c 24.067,-29.515 60.44,-46.976 98.608,-46.976 38.197,0 74.579,17.461 98.6,46.976 l 0.173,-0.103 3.721,5.082 c 0.029,0.009 0.038,0.051 0.052,0.075 l 4.324,5.89 z m -74.331,-39.571 c 9.051,11.403 16.504,27.593 21.595,46.958 7.415,-1.753 14.428,-3.862 20.865,-6.288 0.159,-0.061 0.299,-0.117 0.463,-0.169 1.445,-0.565 2.866,-1.131 4.236,-1.72 0.379,-0.164 0.781,-0.337 1.131,-0.486 1.155,-0.505 2.286,-1.015 3.38,-1.534 0.477,-0.234 0.945,-0.453 1.422,-0.687 0.439,-0.196 0.841,-0.435 1.295,-0.655 -14.306,-16.854 -33.423,-29.121 -54.387,-35.419 m 15.297,101.798 c -0.35,-13.657 -1.795,-26.719 -4.095,-38.748 -3.259,0.551 -6.564,1.019 -9.93,1.454 -0.103,0 -0.187,0.014 -0.276,0.032 -2.01,0.258 -4.049,0.468 -6.096,0.688 -0.314,0.028 -0.631,0.061 -0.954,0.089 -1.847,0.173 -3.684,0.346 -5.568,0.49 -0.617,0.047 -1.234,0.075 -1.838,0.127 -1.608,0.107 -3.239,0.21 -4.848,0.299 -1.094,0.07 -2.202,0.089 -3.296,0.126 -1.192,0.052 -2.384,0.103 -3.595,0.14 -2.361,0.071 -4.713,0.108 -7.088,0.108 -2.36,0 -4.726,-0.037 -7.087,-0.108 -1.183,-0.037 -2.375,-0.084 -3.544,-0.117 -1.117,-0.046 -2.235,-0.079 -3.343,-0.149 -1.608,-0.089 -3.179,-0.192 -4.778,-0.299 -0.654,-0.052 -1.281,-0.08 -1.907,-0.127 -1.861,-0.144 -3.67,-0.303 -5.493,-0.49 -0.365,-0.028 -0.706,-0.061 -1.057,-0.094 -2.01,-0.215 -4.007,-0.425 -5.97,-0.678 -0.136,-0.019 -0.276,-0.037 -0.426,-0.047 -3.333,-0.43 -6.624,-0.902 -9.878,-1.444 -2.301,12.029 -3.722,25.091 -4.072,38.748 z m -95.139,13.651 c 0.35,13.638 1.771,26.714 4.072,38.743 3.254,-0.537 6.545,-1.019 9.902,-1.444 0.126,-0.01 0.266,-0.038 0.378,-0.047 1.987,-0.252 3.984,-0.477 5.994,-0.678 0.351,-0.042 0.692,-0.075 1.057,-0.117 1.809,-0.163 3.632,-0.322 5.493,-0.467 0.626,-0.052 1.267,-0.084 1.907,-0.117 1.599,-0.122 3.17,-0.229 4.792,-0.313 1.104,-0.052 2.212,-0.089 3.329,-0.141 1.169,-0.032 2.361,-0.107 3.544,-0.117 2.361,-0.079 4.727,-0.112 7.087,-0.112 2.366,0 4.727,0.033 7.088,0.112 1.211,0.01 2.403,0.085 3.595,0.117 1.094,0.056 2.202,0.089 3.296,0.141 1.609,0.084 3.24,0.196 4.848,0.313 0.604,0.033 1.221,0.065 1.838,0.117 1.884,0.145 3.731,0.304 5.577,0.491 0.314,0.018 0.631,0.051 0.945,0.093 2.047,0.201 4.086,0.426 6.11,0.687 0.075,0.014 0.159,0.028 0.248,0.028 3.371,0.435 6.685,0.907 9.944,1.454 2.3,-12.029 3.745,-25.105 4.095,-38.743 z m 7.073,-65.794 c 4.325,0.734 8.775,1.351 13.287,1.819 0.037,0.019 0.112,0.019 0.15,0.028 2.01,0.21 4.062,0.411 6.11,0.58 0.248,0.004 0.5,0.037 0.767,0.061 1.832,0.149 3.679,0.266 5.54,0.374 0.425,0.014 0.832,0.046 1.243,0.074 1.763,0.089 3.507,0.169 5.293,0.206 0.491,0.023 0.953,0.033 1.458,0.066 2.198,0.046 4.423,0.084 6.634,0.084 2.226,0 4.437,-0.038 6.663,-0.084 0.476,-0.033 0.967,-0.043 1.458,-0.066 1.758,-0.037 3.521,-0.117 5.265,-0.206 0.416,-0.028 0.832,-0.06 1.257,-0.074 1.861,-0.108 3.694,-0.225 5.545,-0.365 0.262,-0.033 0.5,-0.066 0.767,-0.084 2.057,-0.164 4.081,-0.356 6.091,-0.566 0.052,-0.009 0.117,-0.009 0.164,-0.028 4.512,-0.477 8.962,-1.085 13.273,-1.819 -8.495,-32.417 -23.643,-54.489 -40.483,-54.489 -16.825,0 -31.973,22.072 -40.482,54.489 m -46.172,-14.236 c 0.411,0.211 0.828,0.426 1.253,0.65 0.491,0.215 0.996,0.468 1.487,0.716 1.089,0.509 2.183,1.005 3.305,1.486 0.402,0.173 0.776,0.346 1.178,0.524 1.384,0.575 2.805,1.141 4.227,1.683 0.163,0.065 0.299,0.131 0.476,0.192 6.419,2.426 13.437,4.535 20.861,6.288 5.077,-19.365 12.52,-35.555 21.581,-46.958 -20.964,6.298 -40.081,18.565 -54.368,35.419 m -26.546,66.379 h 51.946 c 0.365,-14.68 1.884,-28.617 4.358,-41.455 -10.216,-2.408 -19.72,-5.461 -28.253,-9.131 -0.135,-0.056 -0.261,-0.112 -0.402,-0.149 -0.729,-0.332 -1.407,-0.66 -2.136,-0.987 -1.005,-0.463 -2.034,-0.926 -3.002,-1.398 -0.556,-0.243 -1.07,-0.514 -1.599,-0.795 -0.893,-0.439 -1.795,-0.883 -2.674,-1.369 -10.846,16.568 -17.069,35.526 -18.238,55.284 m 25.489,65.377 c 0.73,-0.336 1.431,-0.659 2.174,-0.972 0.099,-0.065 0.215,-0.108 0.328,-0.145 8.546,-3.679 18.06,-6.756 28.313,-9.14 -2.474,-12.871 -3.993,-26.793 -4.358,-41.469 h -51.946 c 1.169,19.753 7.392,38.72 18.238,55.261 0.865,-0.463 1.772,-0.884 2.651,-1.337 0.552,-0.271 1.057,-0.557 1.622,-0.832 0.968,-0.463 1.973,-0.917 2.978,-1.366 m 55.425,50.067 c -9.061,-11.422 -16.504,-27.584 -21.581,-46.958 -7.387,1.754 -14.376,3.825 -20.772,6.256 -0.266,0.098 -0.528,0.182 -0.781,0.304 -1.332,0.505 -2.627,1.033 -3.885,1.571 -0.491,0.201 -0.977,0.416 -1.458,0.621 -1.029,0.444 -2.062,0.907 -3.039,1.38 -0.566,0.257 -1.132,0.542 -1.697,0.813 -0.388,0.196 -0.767,0.383 -1.169,0.594 14.301,16.854 33.418,29.121 54.382,35.419 m 72.769,-49.641 c -4.297,-0.725 -8.71,-1.347 -13.207,-1.837 -0.089,-0.015 -0.178,-0.024 -0.29,-0.024 -1.959,-0.224 -3.946,-0.402 -5.957,-0.57 -0.303,-0.028 -0.579,-0.047 -0.869,-0.08 -1.823,-0.145 -3.656,-0.257 -5.503,-0.364 -0.416,-0.014 -0.832,-0.056 -1.271,-0.075 -1.744,-0.075 -3.507,-0.164 -5.265,-0.211 -0.477,-0.018 -0.982,-0.037 -1.458,-0.06 -2.226,-0.042 -4.437,-0.075 -6.663,-0.075 -2.211,0 -4.436,0.033 -6.634,0.075 -0.505,0.023 -0.981,0.042 -1.482,0.06 -1.762,0.047 -3.506,0.136 -5.269,0.211 -0.411,0.019 -0.841,0.061 -1.253,0.075 -1.851,0.107 -3.684,0.219 -5.507,0.364 -0.29,0.033 -0.566,0.052 -0.841,0.08 -2.025,0.168 -4.021,0.346 -6.008,0.57 -0.089,0 -0.178,0.009 -0.266,0.024 -4.484,0.49 -8.911,1.098 -13.222,1.813 8.509,32.418 23.642,54.508 40.482,54.508 16.855,0 31.988,-22.09 40.483,-54.484 m 46.191,14.222 c -0.416,-0.211 -0.781,-0.402 -1.169,-0.594 -0.566,-0.271 -1.122,-0.556 -1.697,-0.813 -0.982,-0.473 -2.001,-0.926 -3.044,-1.38 -0.477,-0.205 -0.953,-0.42 -1.458,-0.631 -1.258,-0.528 -2.525,-1.052 -3.843,-1.561 -0.267,-0.113 -0.543,-0.206 -0.819,-0.318 -6.423,-2.417 -13.399,-4.498 -20.762,-6.242 -5.091,19.374 -12.53,35.536 -21.595,46.958 20.964,-6.298 40.081,-18.565 54.387,-35.419 M 6.597,75.878 h -51.97 c -0.364,14.676 -1.87,28.598 -4.348,41.446 11.352,2.669 21.796,6.166 31.058,10.397 0.902,0.402 1.832,0.828 2.725,1.23 0.594,0.308 1.146,0.622 1.735,0.912 0.855,0.42 1.734,0.832 2.538,1.276 C -0.79,114.598 5.419,95.635 6.597,75.878 M -11.665,6.943 c -0.827,0.462 -1.697,0.888 -2.562,1.318 -0.579,0.281 -1.117,0.589 -1.711,0.87 -0.893,0.425 -1.832,0.846 -2.739,1.262 -9.248,4.217 -19.692,7.714 -31.044,10.379 2.478,12.838 3.984,26.784 4.348,41.455 H 6.597 C 5.419,42.469 -0.79,23.511 -11.665,6.943" /></g><g
           transform="translate(112.4915,431.0126)"
           id="g24"><path
             id="path26"
             style="fill:#007b3d;fill-opacity:1;fill-rule:nonzero;stroke:none"
             d="m 0,0 v -43.273 l 103.537,-23.671 103.527,23.671 V 0 l 12.487,3.235 21.955,5.695 V -1.907 -12.099 c -0.893,-0.412 -1.515,-1.37 -1.515,-2.488 v -2.819 c 0,-1.028 0.533,-1.912 1.309,-2.37 l -5.334,-24.821 h 7.798 7.793 l -5.334,24.821 c 0.776,0.458 1.304,1.342 1.304,2.37 v 2.819 c 0,1.118 -0.621,2.076 -1.505,2.488 v 11.36 10.842 L 277.93,18.373 103.532,63.592 -70.862,18.373 -12.487,3.24 Z" /></g></g></g></g></svg>